<?xml version="1.0" standalone="no"?>
<!DOCTYPE svg PUBLIC "-//W3C//DTD SVG 20010904//EN"
 "http://www.w3.org/TR/2001/REC-SVG-20010904/DTD/svg10.dtd">
<svg version="1.0" xmlns="http://www.w3.org/2000/svg"
 width="260.000000pt" height="260.000000pt" viewBox="0 0 260.000000 260.000000"
 preserveAspectRatio="xMidYMid meet">
<metadata>
Created by potrace 1.11, written by Peter Selinger 2001-2013
</metadata>
<g transform="translate(0.000000,260.000000) scale(0.100000,-0.100000)"
fill="#000000" stroke="none">
<path d="M460 1305 l0 -895 218 0 217 0 94 233 c52 127 97 236 101 240 4 4 22
-31 40 -78 l33 -85 137 0 137 0 33 86 c20 52 36 80 40 72 4 -7 47 -115 95
-241 l88 -227 229 0 228 0 0 895 0 895 -228 0 -229 0 -88 -227 c-48 -126 -91
-234 -95 -241 -4 -8 -20 20 -40 72 l-33 86 -137 0 -137 0 -33 -85 c-18 -47
-36 -82 -40 -78 -4 4 -49 113 -101 240 l-94 233 -217 0 -218 0 0 -895z m1360
-2 l-1 -378 -45 110 c-24 61 -58 146 -75 191 l-30 81 73 186 c40 103 74 187
75 187 2 0 3 -170 3 -377z m-961 177 l71 -175 -71 -175 c-39 -96 -73 -177 -75
-179 -2 -2 -4 157 -4 354 0 197 2 356 4 354 2 -2 36 -83 75 -179z m466 -228
l-19 -55 -24 53 -23 53 22 55 23 55 19 -53 c20 -51 20 -53 2 -108z"/>
</g>
</svg>
